<svg width="32" height="50" viewBox="0 0 32 50" fill="none" xmlns="http://www.w3.org/2000/svg">
<path opacity="0.4" d="M26 12.6667V19.3334C26 24.8401 21.5067 29.3334 16 29.3334C10.4933 29.3334 6 24.8401 6 19.3334V12.6667C6 9.92008 7.12 7.41341 8.93333 5.60008C10.52 4.01341 12.64 2.96008 15 2.72008C15.32 2.68008 15.6667 2.66675 16 2.66675C16.3333 2.66675 16.68 2.68008 17 2.72008C22.04 3.22675 26 7.49341 26 12.6667Z" fill="#9098D9"/>
<path d="M18.4933 10.0001V12.6667C18.4933 14.0401 17.3733 15.1734 16 15.1734C14.6133 15.1734 13.4933 14.0401 13.4933 12.6667V10.0001C13.4933 8.97341 14.12 8.09341 15 7.70675V2.72008C15.32 2.68008 15.6667 2.66675 16 2.66675C16.3333 2.66675 16.68 2.68008 17 2.72008V7.70675C17.88 8.09341 18.4933 8.97341 18.4933 10.0001Z" fill="#9098D9"/>
<path d="M19.8762 46.43L16.5262 49.78C16.2362 50.07 15.7562 50.07 15.4662 49.78L12.1162 46.43C11.8262 46.14 11.8262 45.66 12.1162 45.37C12.4062 45.08 12.8862 45.08 13.1762 45.37L15.2462 47.44V36.75C15.2462 36.34 15.5862 36 15.9962 36C16.4062 36 16.7462 36.34 16.7462 36.75V47.44L18.8162 45.37C18.9662 45.22 19.1562 45.15 19.3462 45.15C19.5362 45.15 19.7262 45.22 19.8762 45.37C20.1762 45.66 20.1762 46.13 19.8762 46.43Z" fill="#9098D9"/>
</svg>
